<svg xmlns="http://www.w3.org/2000/svg" xmlns:xlink="http://www.w3.org/1999/xlink" width="128" zoomAndPan="magnify" viewBox="0 0 96 95.999999" height="128" preserveAspectRatio="xMidYMid meet" version="1.0"><defs><g/><clipPath id="c056f30469"><path d="M 53 69 L 64.746094 69 L 64.746094 84 L 53 84 Z M 53 69 " clip-rule="nonzero"/></clipPath><clipPath id="3275725b8b"><path d="M 56 69 L 64.746094 69 L 64.746094 78 L 56 78 Z M 56 69 " clip-rule="nonzero"/></clipPath><clipPath id="17a68a76d8"><path d="M 55 79 L 63 79 L 63 86.371094 L 55 86.371094 Z M 55 79 " clip-rule="nonzero"/></clipPath><clipPath id="de7cd6cf77"><path d="M 40 79 L 48 79 L 48 86.371094 L 40 86.371094 Z M 40 79 " clip-rule="nonzero"/></clipPath><clipPath id="a8e45fbac4"><path d="M 34 66.121094 L 55 66.121094 L 55 71 L 34 71 Z M 34 66.121094 " clip-rule="nonzero"/></clipPath></defs><g fill="#ffffff" fill-opacity="1"><g transform="translate(4.379461, 70.249703)"><g><path d="M 6.03125 -52.671875 C 9.675781 -53.148438 13.414062 -53.390625 17.25 -53.390625 C 24.394531 -53.390625 29.828125 -51.710938 33.546875 -48.359375 C 37.265625 -45.015625 39.125 -40.003906 39.125 -33.328125 C 39.125 -27.367188 37.085938 -22.65625 33.015625 -19.1875 C 29.203125 -15.925781 24.300781 -14.296875 18.3125 -14.296875 C 17.632812 -14.296875 16.890625 -14.335938 16.078125 -14.421875 L 16.078125 0 L 6.03125 0 Z M 18.4375 -43.890625 C 17.644531 -43.890625 16.859375 -43.863281 16.078125 -43.8125 L 16.078125 -23.09375 C 16.910156 -22.988281 17.929688 -22.9375 19.140625 -22.9375 C 20.347656 -22.9375 21.609375 -23.191406 22.921875 -23.703125 C 24.242188 -24.210938 25.347656 -24.925781 26.234375 -25.84375 C 28.097656 -27.757812 29.03125 -30.28125 29.03125 -33.40625 C 29.03125 -40.394531 25.5 -43.890625 18.4375 -43.890625 Z M 18.4375 -43.890625 "/></g></g></g><g fill="#ffffff" fill-opacity="1"><g transform="translate(44.799742, 70.249703)"><g><path d="M 30.265625 -53.390625 C 35.171875 -53.390625 39.359375 -52.535156 42.828125 -50.828125 L 42.828125 -38.765625 L 42.75 -38.6875 C 41.28125 -40.945312 38.179688 -42.445312 33.453125 -43.1875 C 32.054688 -43.414062 30.296875 -43.53125 28.171875 -43.53125 C 26.046875 -43.53125 23.957031 -43.128906 21.90625 -42.328125 C 19.851562 -41.523438 18.171875 -40.390625 16.859375 -38.921875 C 14.316406 -36.054688 13.046875 -31.972656 13.046875 -26.671875 C 13.046875 -20.492188 14.660156 -15.898438 17.890625 -12.890625 C 20.566406 -10.359375 24.113281 -9.09375 28.53125 -9.09375 C 33.519531 -9.09375 37.5625 -10.160156 40.65625 -12.296875 C 41.789062 -13.054688 42.75 -14 43.53125 -15.125 L 43.65625 -15.046875 L 43.65625 -4.015625 C 39.632812 -0.679688 34.222656 0.984375 27.421875 0.984375 C 19.410156 0.984375 13.132812 -1.5625 8.59375 -6.65625 C 4.226562 -11.519531 2.046875 -17.957031 2.046875 -25.96875 C 2.046875 -34.445312 4.4375 -41.128906 9.21875 -46.015625 C 14.050781 -50.929688 21.066406 -53.390625 30.265625 -53.390625 Z M 30.265625 -53.390625 "/></g></g></g><path fill="#ffffff" d="M 55.648438 83.667969 L 46.753906 83.667969 C 46.429688 83.667969 46.164062 83.40625 46.164062 83.082031 C 46.164062 82.757812 46.429688 82.492188 46.753906 82.492188 L 55.648438 82.492188 C 55.972656 82.492188 56.234375 82.757812 56.234375 83.082031 C 56.234375 83.40625 55.972656 83.667969 55.648438 83.667969 " fill-opacity="1" fill-rule="nonzero"/><g clip-path="url(#c056f30469)"><path fill="#ffffff" d="M 64.402344 83.667969 L 62.09375 83.667969 C 61.769531 83.667969 61.503906 83.40625 61.503906 83.082031 C 61.503906 82.757812 61.769531 82.492188 62.09375 82.492188 L 63.8125 82.492188 L 63.8125 79.25 C 63.8125 74.972656 60.777344 71.25 56.59375 70.398438 C 56 70.277344 55.390625 70.214844 54.777344 70.214844 L 53.957031 70.214844 C 53.632812 70.214844 53.371094 69.953125 53.371094 69.628906 C 53.371094 69.300781 53.632812 69.039062 53.957031 69.039062 L 54.777344 69.039062 C 55.46875 69.039062 56.15625 69.109375 56.828125 69.246094 C 61.554688 70.207031 64.988281 74.414062 64.988281 79.25 L 64.988281 83.082031 C 64.988281 83.40625 64.726562 83.667969 64.402344 83.667969 " fill-opacity="1" fill-rule="nonzero"/></g><path fill="#ffffff" d="M 40.6875 83.667969 L 37.929688 83.667969 C 37.605469 83.667969 37.339844 83.40625 37.339844 83.082031 C 37.339844 82.757812 37.605469 82.492188 37.929688 82.492188 L 40.6875 82.492188 C 41.011719 82.492188 41.273438 82.757812 41.273438 83.082031 C 41.273438 83.40625 41.011719 83.667969 40.6875 83.667969 " fill-opacity="1" fill-rule="nonzero"/><g clip-path="url(#3275725b8b)"><path fill="#ffffff" d="M 64.164062 77.753906 L 56.820312 77.753906 C 56.492188 77.753906 56.230469 77.488281 56.230469 77.164062 L 56.230469 69.820312 C 56.230469 69.496094 56.492188 69.234375 56.820312 69.234375 C 57.144531 69.234375 57.40625 69.496094 57.40625 69.820312 L 57.40625 76.578125 L 64.164062 76.578125 C 64.492188 76.578125 64.753906 76.839844 64.753906 77.164062 C 64.753906 77.488281 64.492188 77.753906 64.164062 77.753906 " fill-opacity="1" fill-rule="nonzero"/></g><g clip-path="url(#17a68a76d8)"><path fill="#ffffff" d="M 58.816406 80.945312 C 57.640625 80.945312 56.683594 81.90625 56.683594 83.082031 C 56.683594 84.257812 57.640625 85.21875 58.816406 85.21875 C 59.996094 85.21875 60.953125 84.257812 60.953125 83.082031 C 60.953125 81.90625 59.996094 80.945312 58.816406 80.945312 Z M 58.816406 86.394531 C 56.992188 86.394531 55.507812 84.90625 55.507812 83.082031 C 55.507812 81.257812 56.992188 79.769531 58.816406 79.769531 C 60.644531 79.769531 62.128906 81.257812 62.128906 83.082031 C 62.128906 84.90625 60.644531 86.394531 58.816406 86.394531 " fill-opacity="1" fill-rule="nonzero"/></g><g clip-path="url(#de7cd6cf77)"><path fill="#ffffff" d="M 43.71875 80.945312 C 42.542969 80.945312 41.585938 81.90625 41.585938 83.082031 C 41.585938 84.257812 42.542969 85.21875 43.71875 85.21875 C 44.898438 85.21875 45.855469 84.257812 45.855469 83.082031 C 45.855469 81.90625 44.898438 80.945312 43.71875 80.945312 Z M 43.71875 86.394531 C 41.894531 86.394531 40.410156 84.90625 40.410156 83.082031 C 40.410156 81.257812 41.894531 79.769531 43.71875 79.769531 C 45.546875 79.769531 47.03125 81.257812 47.03125 83.082031 C 47.03125 84.90625 45.546875 86.394531 43.71875 86.394531 " fill-opacity="1" fill-rule="nonzero"/></g><path fill="#ffffff" d="M 53.597656 79.5 L 37.929688 79.5 C 37.605469 79.5 37.339844 79.238281 37.339844 78.910156 C 37.339844 78.585938 37.605469 78.324219 37.929688 78.324219 L 53.007812 78.324219 L 53.007812 69.628906 C 53.007812 69.300781 53.269531 69.039062 53.597656 69.039062 C 53.921875 69.039062 54.183594 69.300781 54.183594 69.628906 L 54.183594 78.910156 C 54.183594 79.238281 53.921875 79.5 53.597656 79.5 " fill-opacity="1" fill-rule="nonzero"/><g clip-path="url(#a8e45fbac4)"><path fill="#ffffff" d="M 53.597656 70.546875 C 53.269531 70.546875 53.007812 70.28125 53.007812 69.957031 L 53.007812 67.296875 L 35.242188 67.296875 C 34.914062 67.296875 34.652344 67.035156 34.652344 66.707031 C 34.652344 66.382812 34.914062 66.121094 35.242188 66.121094 L 53.597656 66.121094 C 53.921875 66.121094 54.183594 66.382812 54.183594 66.707031 L 54.183594 69.957031 C 54.183594 70.28125 53.921875 70.546875 53.597656 70.546875 " fill-opacity="1" fill-rule="nonzero"/></g><path fill="#ffffff" d="M 39.035156 79.5 L 37.929688 79.5 C 37.605469 79.5 37.339844 79.238281 37.339844 78.910156 C 37.339844 78.585938 37.605469 78.324219 37.929688 78.324219 L 39.035156 78.324219 C 39.363281 78.324219 39.625 78.585938 39.625 78.910156 C 39.625 79.238281 39.363281 79.5 39.035156 79.5 " fill-opacity="1" fill-rule="nonzero"/><path fill="#ffffff" d="M 41.210938 70.410156 L 32.835938 70.410156 C 32.511719 70.410156 32.25 70.144531 32.25 69.820312 C 32.25 69.496094 32.511719 69.234375 32.835938 69.234375 L 41.210938 69.234375 C 41.539062 69.234375 41.800781 69.496094 41.800781 69.820312 C 41.800781 70.144531 41.539062 70.410156 41.210938 70.410156 " fill-opacity="1" fill-rule="nonzero"/><path fill="#ffffff" d="M 39.867188 73.558594 L 34.457031 73.558594 C 34.132812 73.558594 33.867188 73.296875 33.867188 72.972656 C 33.867188 72.644531 34.132812 72.382812 34.457031 72.382812 L 39.867188 72.382812 C 40.195312 72.382812 40.457031 72.644531 40.457031 72.972656 C 40.457031 73.296875 40.195312 73.558594 39.867188 73.558594 " fill-opacity="1" fill-rule="nonzero"/><path fill="#ffffff" d="M 42.902344 76.84375 L 31.59375 76.84375 C 31.269531 76.84375 31.007812 76.582031 31.007812 76.257812 C 31.007812 75.933594 31.269531 75.667969 31.59375 75.667969 L 42.902344 75.667969 C 43.226562 75.667969 43.488281 75.933594 43.488281 76.257812 C 43.488281 76.582031 43.226562 76.84375 42.902344 76.84375 " fill-opacity="1" fill-rule="nonzero"/><path fill="#ffffff" d="M 37.929688 81.589844 L 33.90625 81.589844 C 33.578125 81.589844 33.316406 81.328125 33.316406 81.003906 C 33.316406 80.675781 33.578125 80.414062 33.90625 80.414062 L 37.929688 80.414062 C 38.253906 80.414062 38.515625 80.675781 38.515625 81.003906 C 38.515625 81.328125 38.253906 81.589844 37.929688 81.589844 " fill-opacity="1" fill-rule="nonzero"/></svg>